<?xml version="1.0" encoding="UTF-8"?>
<svg width="1000" height="2630" xmlns="http://www.w3.org/2000/svg">
<text x="10" y="20" font-size="18" fill="black">Layout 1:</text>
<rect x="0" y="30" width="150" height="150" fill="#e0f7ff" stroke="black" stroke-width="2"/>
<text x="10" y="50" font-size="14" fill="black">Toilet</text>
<rect x="150" y="30" width="200" height="150" fill="#e0f7ff" stroke="black" stroke-width="2"/>
<text x="160" y="50" font-size="14" fill="black">Storage</text>
<rect x="350" y="30" width="280" height="200" fill="#e0f7ff" stroke="black" stroke-width="2"/>
<text x="360" y="50" font-size="14" fill="black">Guest Room</text>
<rect x="0" y="230" width="400" height="250" fill="#e0f7ff" stroke="black" stroke-width="2"/>
<text x="10" y="250" font-size="14" fill="black">Living Room</text>
<rect x="400" y="230" width="300" height="200" fill="#e0f7ff" stroke="black" stroke-width="2"/>
<text x="410" y="250" font-size="14" fill="black">Dining Room</text>
<rect x="700" y="230" width="300" height="200" fill="#e0f7ff" stroke="black" stroke-width="2"/>
<text x="710" y="250" font-size="14" fill="black">Bedroom 2</text>
<rect x="0" y="480" width="250" height="200" fill="#e0f7ff" stroke="black" stroke-width="2"/>
<text x="10" y="500" font-size="14" fill="black">Kitchen</text>
<rect x="250" y="480" width="300" height="200" fill="#e0f7ff" stroke="black" stroke-width="2"/>
<text x="260" y="500" font-size="14" fill="black">Bedroom 1</text>
<rect x="550" y="480" width="180" height="150" fill="#e0f7ff" stroke="black" stroke-width="2"/>
<text x="560" y="500" font-size="14" fill="black">Walk-in Closet</text>
<rect x="730" y="480" width="250" height="180" fill="#e0f7ff" stroke="black" stroke-width="2"/>
<text x="740" y="500" font-size="14" fill="black">Study Room</text>
<rect x="0" y="680" width="200" height="150" fill="#e0f7ff" stroke="black" stroke-width="2"/>
<text x="10" y="700" font-size="14" fill="black">Bathroom</text>
<text x="10" y="930" font-size="18" fill="black">Layout 2:</text>
<rect x="0" y="940" width="300" height="200" fill="#e0f7ff" stroke="black" stroke-width="2"/>
<text x="10" y="960" font-size="14" fill="black">Dining Room</text>
<rect x="300" y="940" width="150" height="150" fill="#e0f7ff" stroke="black" stroke-width="2"/>
<text x="310" y="960" font-size="14" fill="black">Toilet</text>
<rect x="450" y="940" width="200" height="150" fill="#e0f7ff" stroke="black" stroke-width="2"/>
<text x="460" y="960" font-size="14" fill="black">Bathroom</text>
<rect x="650" y="940" width="250" height="180" fill="#e0f7ff" stroke="black" stroke-width="2"/>
<text x="660" y="960" font-size="14" fill="black">Study Room</text>
<rect x="0" y="1140" width="250" height="200" fill="#e0f7ff" stroke="black" stroke-width="2"/>
<text x="10" y="1160" font-size="14" fill="black">Kitchen</text>
<rect x="250" y="1140" width="300" height="200" fill="#e0f7ff" stroke="black" stroke-width="2"/>
<text x="260" y="1160" font-size="14" fill="black">Bedroom 2</text>
<rect x="550" y="1140" width="400" height="250" fill="#e0f7ff" stroke="black" stroke-width="2"/>
<text x="560" y="1160" font-size="14" fill="black">Living Room</text>
<rect x="0" y="1390" width="280" height="200" fill="#e0f7ff" stroke="black" stroke-width="2"/>
<text x="10" y="1410" font-size="14" fill="black">Guest Room</text>
<rect x="280" y="1390" width="300" height="200" fill="#e0f7ff" stroke="black" stroke-width="2"/>
<text x="290" y="1410" font-size="14" fill="black">Bedroom 1</text>
<rect x="580" y="1390" width="180" height="150" fill="#e0f7ff" stroke="black" stroke-width="2"/>
<text x="590" y="1410" font-size="14" fill="black">Walk-in Closet</text>
<rect x="760" y="1390" width="200" height="150" fill="#e0f7ff" stroke="black" stroke-width="2"/>
<text x="770" y="1410" font-size="14" fill="black">Storage</text>
<text x="10" y="1690" font-size="18" fill="black">Layout 3:</text>
<rect x="0" y="1700" width="180" height="150" fill="#e0f7ff" stroke="black" stroke-width="2"/>
<text x="10" y="1720" font-size="14" fill="black">Walk-in Closet</text>
<rect x="180" y="1700" width="200" height="150" fill="#e0f7ff" stroke="black" stroke-width="2"/>
<text x="190" y="1720" font-size="14" fill="black">Bathroom</text>
<rect x="380" y="1700" width="200" height="150" fill="#e0f7ff" stroke="black" stroke-width="2"/>
<text x="390" y="1720" font-size="14" fill="black">Storage</text>
<rect x="580" y="1700" width="300" height="200" fill="#e0f7ff" stroke="black" stroke-width="2"/>
<text x="590" y="1720" font-size="14" fill="black">Bedroom 2</text>
<rect x="0" y="1900" width="150" height="150" fill="#e0f7ff" stroke="black" stroke-width="2"/>
<text x="10" y="1920" font-size="14" fill="black">Toilet</text>
<rect x="150" y="1900" width="250" height="200" fill="#e0f7ff" stroke="black" stroke-width="2"/>
<text x="160" y="1920" font-size="14" fill="black">Kitchen</text>
<rect x="400" y="1900" width="400" height="250" fill="#e0f7ff" stroke="black" stroke-width="2"/>
<text x="410" y="1920" font-size="14" fill="black">Living Room</text>
<rect x="0" y="2150" width="250" height="180" fill="#e0f7ff" stroke="black" stroke-width="2"/>
<text x="10" y="2170" font-size="14" fill="black">Study Room</text>
<rect x="250" y="2150" width="300" height="200" fill="#e0f7ff" stroke="black" stroke-width="2"/>
<text x="260" y="2170" font-size="14" fill="black">Bedroom 1</text>
<rect x="550" y="2150" width="280" height="200" fill="#e0f7ff" stroke="black" stroke-width="2"/>
<text x="560" y="2170" font-size="14" fill="black">Guest Room</text>
<rect x="0" y="2350" width="300" height="200" fill="#e0f7ff" stroke="black" stroke-width="2"/>
<text x="10" y="2370" font-size="14" fill="black">Dining Room</text>
</svg>
