<?xml version="1.0" encoding="UTF-8"?>
<svg width="1200" height="3430" viewBox="0 0 1200 3430" xmlns="http://www.w3.org/2000/svg">
<text x="10" y="30" font-size="18" fill="black">Layout 1</text>
<rect x="0" y="50" width="250" height="180" fill="#d9f9d9" stroke="black" stroke-width="2"/>
<text x="125.0" y="130.0" font-size="14" text-anchor="middle" fill="black">Study Room</text>
<text x="125.0" y="160.0" font-size="12" text-anchor="middle" fill="#333">2500mm x 1800mm</text>
<rect x="250" y="50" width="150" height="150" fill="#d9f9d9" stroke="black" stroke-width="2"/>
<text x="325.0" y="115.0" font-size="14" text-anchor="middle" fill="black">Toilet</text>
<text x="325.0" y="145.0" font-size="12" text-anchor="middle" fill="#333">1500mm x 1500mm</text>
<rect x="400" y="50" width="180" height="150" fill="#d9f9d9" stroke="black" stroke-width="2"/>
<text x="490.0" y="115.0" font-size="14" text-anchor="middle" fill="black">Walk-in Closet</text>
<text x="490.0" y="145.0" font-size="12" text-anchor="middle" fill="#333">1800mm x 1500mm</text>
<rect x="580" y="50" width="400" height="250" fill="#d9f9d9" stroke="black" stroke-width="2"/>
<text x="780.0" y="165.0" font-size="14" text-anchor="middle" fill="black">Living Room</text>
<text x="780.0" y="195.0" font-size="12" text-anchor="middle" fill="#333">4000mm x 2500mm</text>
<rect x="0" y="350" width="300" height="200" fill="#d9f9d9" stroke="black" stroke-width="2"/>
<text x="150.0" y="440.0" font-size="14" text-anchor="middle" fill="black">Bedroom 1</text>
<text x="150.0" y="470.0" font-size="12" text-anchor="middle" fill="#333">3000mm x 2000mm</text>
<rect x="300" y="350" width="200" height="150" fill="#d9f9d9" stroke="black" stroke-width="2"/>
<text x="400.0" y="415.0" font-size="14" text-anchor="middle" fill="black">Storage</text>
<text x="400.0" y="445.0" font-size="12" text-anchor="middle" fill="#333">2000mm x 1500mm</text>
<rect x="500" y="350" width="300" height="200" fill="#d9f9d9" stroke="black" stroke-width="2"/>
<text x="650.0" y="440.0" font-size="14" text-anchor="middle" fill="black">Bedroom 2</text>
<text x="650.0" y="470.0" font-size="12" text-anchor="middle" fill="#333">3000mm x 2000mm</text>
<rect x="800" y="350" width="250" height="200" fill="#d9f9d9" stroke="black" stroke-width="2"/>
<text x="925.0" y="440.0" font-size="14" text-anchor="middle" fill="black">Kitchen</text>
<text x="925.0" y="470.0" font-size="12" text-anchor="middle" fill="#333">2500mm x 2000mm</text>
<rect x="0" y="600" width="350" height="250" fill="#d9f9d9" stroke="black" stroke-width="2"/>
<text x="175.0" y="715.0" font-size="14" text-anchor="middle" fill="black">Home Theater</text>
<text x="175.0" y="745.0" font-size="12" text-anchor="middle" fill="#333">3500mm x 2500mm</text>
<rect x="350" y="600" width="280" height="200" fill="#d9f9d9" stroke="black" stroke-width="2"/>
<text x="490.0" y="690.0" font-size="14" text-anchor="middle" fill="black">Guest Room</text>
<text x="490.0" y="720.0" font-size="12" text-anchor="middle" fill="#333">2800mm x 2000mm</text>
<rect x="630" y="600" width="200" height="150" fill="#d9f9d9" stroke="black" stroke-width="2"/>
<text x="730.0" y="665.0" font-size="14" text-anchor="middle" fill="black">Bathroom</text>
<text x="730.0" y="695.0" font-size="12" text-anchor="middle" fill="#333">2000mm x 1500mm</text>
<rect x="830" y="600" width="220" height="180" fill="#d9f9d9" stroke="black" stroke-width="2"/>
<text x="940.0" y="680.0" font-size="14" text-anchor="middle" fill="black">Laundry</text>
<text x="940.0" y="710.0" font-size="12" text-anchor="middle" fill="#333">2200mm x 1800mm</text>
<rect x="0" y="900" width="300" height="200" fill="#d9f9d9" stroke="black" stroke-width="2"/>
<text x="150.0" y="990.0" font-size="14" text-anchor="middle" fill="black">Dining Room</text>
<text x="150.0" y="1020.0" font-size="12" text-anchor="middle" fill="#333">3000mm x 2000mm</text>
<rect x="300" y="900" width="200" height="150" fill="#d9f9d9" stroke="black" stroke-width="2"/>
<text x="400.0" y="965.0" font-size="14" text-anchor="middle" fill="black">Pantry</text>
<text x="400.0" y="995.0" font-size="12" text-anchor="middle" fill="#333">2000mm x 1500mm</text>
<text x="10" y="1180" font-size="18" fill="black">Layout 2</text>
<rect x="0" y="1200" width="350" height="250" fill="#d9f9d9" stroke="black" stroke-width="2"/>
<text x="175.0" y="1315.0" font-size="14" text-anchor="middle" fill="black">Home Theater</text>
<text x="175.0" y="1345.0" font-size="12" text-anchor="middle" fill="#333">3500mm x 2500mm</text>
<rect x="350" y="1200" width="300" height="200" fill="#d9f9d9" stroke="black" stroke-width="2"/>
<text x="500.0" y="1290.0" font-size="14" text-anchor="middle" fill="black">Bedroom 1</text>
<text x="500.0" y="1320.0" font-size="12" text-anchor="middle" fill="#333">3000mm x 2000mm</text>
<rect x="650" y="1200" width="300" height="200" fill="#d9f9d9" stroke="black" stroke-width="2"/>
<text x="800.0" y="1290.0" font-size="14" text-anchor="middle" fill="black">Dining Room</text>
<text x="800.0" y="1320.0" font-size="12" text-anchor="middle" fill="#333">3000mm x 2000mm</text>
<rect x="950" y="1200" width="200" height="150" fill="#d9f9d9" stroke="black" stroke-width="2"/>
<text x="1050.0" y="1265.0" font-size="14" text-anchor="middle" fill="black">Pantry</text>
<text x="1050.0" y="1295.0" font-size="12" text-anchor="middle" fill="#333">2000mm x 1500mm</text>
<rect x="0" y="1500" width="220" height="180" fill="#d9f9d9" stroke="black" stroke-width="2"/>
<text x="110.0" y="1580.0" font-size="14" text-anchor="middle" fill="black">Laundry</text>
<text x="110.0" y="1610.0" font-size="12" text-anchor="middle" fill="#333">2200mm x 1800mm</text>
<rect x="220" y="1500" width="300" height="200" fill="#d9f9d9" stroke="black" stroke-width="2"/>
<text x="370.0" y="1590.0" font-size="14" text-anchor="middle" fill="black">Bedroom 2</text>
<text x="370.0" y="1620.0" font-size="12" text-anchor="middle" fill="#333">3000mm x 2000mm</text>
<rect x="520" y="1500" width="180" height="150" fill="#d9f9d9" stroke="black" stroke-width="2"/>
<text x="610.0" y="1565.0" font-size="14" text-anchor="middle" fill="black">Walk-in Closet</text>
<text x="610.0" y="1595.0" font-size="12" text-anchor="middle" fill="#333">1800mm x 1500mm</text>
<rect x="700" y="1500" width="280" height="200" fill="#d9f9d9" stroke="black" stroke-width="2"/>
<text x="840.0" y="1590.0" font-size="14" text-anchor="middle" fill="black">Guest Room</text>
<text x="840.0" y="1620.0" font-size="12" text-anchor="middle" fill="#333">2800mm x 2000mm</text>
<rect x="0" y="1750" width="250" height="200" fill="#d9f9d9" stroke="black" stroke-width="2"/>
<text x="125.0" y="1840.0" font-size="14" text-anchor="middle" fill="black">Kitchen</text>
<text x="125.0" y="1870.0" font-size="12" text-anchor="middle" fill="#333">2500mm x 2000mm</text>
<rect x="250" y="1750" width="400" height="250" fill="#d9f9d9" stroke="black" stroke-width="2"/>
<text x="450.0" y="1865.0" font-size="14" text-anchor="middle" fill="black">Living Room</text>
<text x="450.0" y="1895.0" font-size="12" text-anchor="middle" fill="#333">4000mm x 2500mm</text>
<rect x="650" y="1750" width="150" height="150" fill="#d9f9d9" stroke="black" stroke-width="2"/>
<text x="725.0" y="1815.0" font-size="14" text-anchor="middle" fill="black">Toilet</text>
<text x="725.0" y="1845.0" font-size="12" text-anchor="middle" fill="#333">1500mm x 1500mm</text>
<rect x="800" y="1750" width="200" height="150" fill="#d9f9d9" stroke="black" stroke-width="2"/>
<text x="900.0" y="1815.0" font-size="14" text-anchor="middle" fill="black">Bathroom</text>
<text x="900.0" y="1845.0" font-size="12" text-anchor="middle" fill="#333">2000mm x 1500mm</text>
<rect x="0" y="2050" width="250" height="180" fill="#d9f9d9" stroke="black" stroke-width="2"/>
<text x="125.0" y="2130.0" font-size="14" text-anchor="middle" fill="black">Study Room</text>
<text x="125.0" y="2160.0" font-size="12" text-anchor="middle" fill="#333">2500mm x 1800mm</text>
<rect x="250" y="2050" width="200" height="150" fill="#d9f9d9" stroke="black" stroke-width="2"/>
<text x="350.0" y="2115.0" font-size="14" text-anchor="middle" fill="black">Storage</text>
<text x="350.0" y="2145.0" font-size="12" text-anchor="middle" fill="#333">2000mm x 1500mm</text>
<text x="10" y="2310" font-size="18" fill="black">Layout 3</text>
<rect x="0" y="2330" width="220" height="180" fill="#d9f9d9" stroke="black" stroke-width="2"/>
<text x="110.0" y="2410.0" font-size="14" text-anchor="middle" fill="black">Laundry</text>
<text x="110.0" y="2440.0" font-size="12" text-anchor="middle" fill="#333">2200mm x 1800mm</text>
<rect x="220" y="2330" width="300" height="200" fill="#d9f9d9" stroke="black" stroke-width="2"/>
<text x="370.0" y="2420.0" font-size="14" text-anchor="middle" fill="black">Dining Room</text>
<text x="370.0" y="2450.0" font-size="12" text-anchor="middle" fill="#333">3000mm x 2000mm</text>
<rect x="520" y="2330" width="200" height="150" fill="#d9f9d9" stroke="black" stroke-width="2"/>
<text x="620.0" y="2395.0" font-size="14" text-anchor="middle" fill="black">Bathroom</text>
<text x="620.0" y="2425.0" font-size="12" text-anchor="middle" fill="#333">2000mm x 1500mm</text>
<rect x="720" y="2330" width="200" height="150" fill="#d9f9d9" stroke="black" stroke-width="2"/>
<text x="820.0" y="2395.0" font-size="14" text-anchor="middle" fill="black">Storage</text>
<text x="820.0" y="2425.0" font-size="12" text-anchor="middle" fill="#333">2000mm x 1500mm</text>
<rect x="920" y="2330" width="200" height="150" fill="#d9f9d9" stroke="black" stroke-width="2"/>
<text x="1020.0" y="2395.0" font-size="14" text-anchor="middle" fill="black">Pantry</text>
<text x="1020.0" y="2425.0" font-size="12" text-anchor="middle" fill="#333">2000mm x 1500mm</text>
<rect x="0" y="2580" width="250" height="200" fill="#d9f9d9" stroke="black" stroke-width="2"/>
<text x="125.0" y="2670.0" font-size="14" text-anchor="middle" fill="black">Kitchen</text>
<text x="125.0" y="2700.0" font-size="12" text-anchor="middle" fill="#333">2500mm x 2000mm</text>
<rect x="250" y="2580" width="180" height="150" fill="#d9f9d9" stroke="black" stroke-width="2"/>
<text x="340.0" y="2645.0" font-size="14" text-anchor="middle" fill="black">Walk-in Closet</text>
<text x="340.0" y="2675.0" font-size="12" text-anchor="middle" fill="#333">1800mm x 1500mm</text>
<rect x="430" y="2580" width="150" height="150" fill="#d9f9d9" stroke="black" stroke-width="2"/>
<text x="505.0" y="2645.0" font-size="14" text-anchor="middle" fill="black">Toilet</text>
<text x="505.0" y="2675.0" font-size="12" text-anchor="middle" fill="#333">1500mm x 1500mm</text>
<rect x="580" y="2580" width="250" height="180" fill="#d9f9d9" stroke="black" stroke-width="2"/>
<text x="705.0" y="2660.0" font-size="14" text-anchor="middle" fill="black">Study Room</text>
<text x="705.0" y="2690.0" font-size="12" text-anchor="middle" fill="#333">2500mm x 1800mm</text>
<rect x="830" y="2580" width="350" height="250" fill="#d9f9d9" stroke="black" stroke-width="2"/>
<text x="1005.0" y="2695.0" font-size="14" text-anchor="middle" fill="black">Home Theater</text>
<text x="1005.0" y="2725.0" font-size="12" text-anchor="middle" fill="#333">3500mm x 2500mm</text>
<rect x="0" y="2880" width="400" height="250" fill="#d9f9d9" stroke="black" stroke-width="2"/>
<text x="200.0" y="2995.0" font-size="14" text-anchor="middle" fill="black">Living Room</text>
<text x="200.0" y="3025.0" font-size="12" text-anchor="middle" fill="#333">4000mm x 2500mm</text>
<rect x="400" y="2880" width="300" height="200" fill="#d9f9d9" stroke="black" stroke-width="2"/>
<text x="550.0" y="2970.0" font-size="14" text-anchor="middle" fill="black">Bedroom 1</text>
<text x="550.0" y="3000.0" font-size="12" text-anchor="middle" fill="#333">3000mm x 2000mm</text>
<rect x="700" y="2880" width="300" height="200" fill="#d9f9d9" stroke="black" stroke-width="2"/>
<text x="850.0" y="2970.0" font-size="14" text-anchor="middle" fill="black">Bedroom 2</text>
<text x="850.0" y="3000.0" font-size="12" text-anchor="middle" fill="#333">3000mm x 2000mm</text>
<rect x="0" y="3180" width="280" height="200" fill="#d9f9d9" stroke="black" stroke-width="2"/>
<text x="140.0" y="3270.0" font-size="14" text-anchor="middle" fill="black">Guest Room</text>
<text x="140.0" y="3300.0" font-size="12" text-anchor="middle" fill="#333">2800mm x 2000mm</text>
</svg>